<svg 
 xmlns="http://www.w3.org/2000/svg"
 xmlns:xlink="http://www.w3.org/1999/xlink"
 width="100px" height="100px">
<path fill-rule="evenodd"  fill="orange"
 d="M80.130,99.997 C79.699,99.997 79.266,99.908 78.860,99.728 L49.993,85.612 L21.126,99.728 C20.058,100.201 18.812,100.036 17.903,99.309 C16.990,98.578 16.563,97.399 16.792,96.252 L23.159,64.364 L0.903,42.074 C0.088,41.257 -0.212,40.059 0.121,38.953 C0.454,37.850 1.369,37.018 2.499,36.792 L33.050,31.076 L47.136,1.701 C48.143,-0.561 51.843,-0.561 52.850,1.701 L68.285,31.076 L97.487,36.792 C98.617,37.018 99.532,37.850 99.865,38.953 C100.198,40.059 99.899,41.257 99.084,42.074 L76.827,64.364 L83.194,96.252 C83.423,97.399 82.996,98.578 82.083,99.309 C81.519,99.761 80.826,99.997 80.130,99.997 L80.130,99.997 Z"/>
</svg>